<svg width="32" height="32" viewBox="0 0 32 32" fill="none" xmlns="http://www.w3.org/2000/svg">
<circle cx="16" cy="16" r="15.5" stroke="#A1ABC9"/>
<path d="M11.9778 20.759C13.4172 19.603 14.5448 18.6567 15.3608 17.92C16.1768 17.172 16.8625 16.3957 17.4178 15.591C17.9845 14.775 18.2678 13.976 18.2678 13.194C18.2678 12.4573 18.0865 11.8793 17.7238 11.46C17.3725 11.0293 16.8002 10.814 16.0068 10.814C15.2362 10.814 14.6355 11.0577 14.2048 11.545C13.7855 12.021 13.5588 12.6613 13.5248 13.466H12.0288C12.0742 12.1967 12.4595 11.2163 13.1848 10.525C13.9102 9.83367 14.8452 9.488 15.9898 9.488C17.1572 9.488 18.0808 9.811 18.7608 10.457C19.4522 11.103 19.7978 11.9927 19.7978 13.126C19.7978 14.0667 19.5145 14.9847 18.9478 15.88C18.3925 16.764 17.7578 17.546 17.0438 18.226C16.3298 18.8947 15.4175 19.6767 14.3068 20.572H20.1548V21.864H11.9778V20.759Z" fill="#A1ABC9"/>
</svg>
