<svg width="32" height="32" viewBox="0 0 32 32" fill="none" xmlns="http://www.w3.org/2000/svg">
<circle cx="16" cy="16" r="15.5" stroke="#A1ABC9"/>
<path d="M12.0146 12.803C12.094 11.7603 12.4963 10.9443 13.2216 10.355C13.947 9.76567 14.8876 9.471 16.0436 9.471C16.8143 9.471 17.4773 9.61267 18.0326 9.896C18.5993 10.168 19.0243 10.542 19.3076 11.018C19.6023 11.494 19.7496 12.0323 19.7496 12.633C19.7496 13.3357 19.5456 13.942 19.1376 14.452C18.741 14.962 18.2196 15.2907 17.5736 15.438V15.523C18.3103 15.7043 18.894 16.0613 19.3246 16.594C19.7553 17.1267 19.9706 17.8237 19.9706 18.685C19.9706 19.331 19.8233 19.9147 19.5286 20.436C19.234 20.946 18.792 21.3483 18.2026 21.643C17.6133 21.9377 16.905 22.085 16.0776 22.085C14.8763 22.085 13.8903 21.7733 13.1196 21.15C12.349 20.5153 11.9183 19.62 11.8276 18.464H13.3236C13.403 19.144 13.6806 19.6993 14.1566 20.13C14.6326 20.5607 15.2673 20.776 16.0606 20.776C16.854 20.776 17.4546 20.572 17.8626 20.164C18.282 19.7447 18.4916 19.2063 18.4916 18.549C18.4916 17.699 18.2083 17.087 17.6416 16.713C17.075 16.339 16.2193 16.152 15.0746 16.152H14.6836V14.86H15.0916C16.1343 14.8487 16.922 14.6787 17.4546 14.35C17.9873 14.01 18.2536 13.4887 18.2536 12.786C18.2536 12.1853 18.0553 11.7037 17.6586 11.341C17.2733 10.9783 16.718 10.797 15.9926 10.797C15.29 10.797 14.7233 10.9783 14.2926 11.341C13.862 11.7037 13.607 12.191 13.5276 12.803H12.0146Z" fill="#A1ABC9"/>
</svg>
