<svg width="24" height="24" viewBox="0 0 24 24" fill="none" xmlns="http://www.w3.org/2000/svg">
<path d="M12.3582 11V11.5H12.8582H13.8473C13.9752 11.5 14.099 11.5513 14.1912 11.6445C14.2835 11.7378 14.3364 11.8656 14.3364 12C14.3364 12.1343 14.2835 12.2621 14.1912 12.3555C14.099 12.4486 13.9752 12.5 13.8473 12.5H12.8582H12.3582V13V14C12.3582 14.1343 12.3053 14.2621 12.213 14.3555C12.1208 14.4486 11.997 14.5 11.8691 14.5C11.7411 14.5 11.6173 14.4486 11.5252 14.3555C11.4328 14.2621 11.38 14.1343 11.38 14V13V12.5H10.88H9.8909C9.76297 12.5 9.63915 12.4486 9.54699 12.3555C9.45466 12.2621 9.40181 12.1343 9.40181 12C9.40181 11.8656 9.45466 11.7378 9.54699 11.6445C9.63915 11.5513 9.76297 11.5 9.8909 11.5H10.88H11.38V11V9.99997C11.38 9.8656 11.4328 9.73783 11.5252 9.64447L11.1697 9.29286L11.5252 9.64447C11.6173 9.5513 11.7411 9.49997 11.8691 9.49997C11.997 9.49997 12.1208 9.5513 12.213 9.64447C12.3053 9.73783 12.3582 9.8656 12.3582 9.99997V11ZM11.5686 4.80959L11.8679 5.03471L12.1681 4.81069C13.266 3.9914 14.6165 3.59634 15.976 3.69572C17.3345 3.79503 18.6143 4.38169 19.5843 5.35132C20.1115 5.89168 20.5283 6.53222 20.8105 7.23637C21.0931 7.94141 21.2352 8.69615 21.2284 9.45715C21.2216 10.2182 21.0661 10.9702 20.7711 11.6699C20.476 12.3697 20.0472 13.0032 19.5096 13.5343L19.5095 13.5342L19.504 13.5398L13.5711 19.5881C13.5708 19.5885 13.5705 19.5888 13.5702 19.5891C13.1072 20.0561 12.4811 20.3173 11.8295 20.3173C11.1779 20.3173 10.5518 20.0561 10.0889 19.5891C10.0885 19.5888 10.0882 19.5885 10.0879 19.5881L4.15504 13.5398L4.15505 13.5398L4.15235 13.5371C3.12861 12.5093 2.52716 11.1264 2.47068 9.66665C2.4142 8.20686 2.90698 6.78048 3.84843 5.67468C4.78974 4.56904 6.10937 3.86618 7.54098 3.7059C8.97255 3.54563 10.4116 3.93957 11.5686 4.80959ZM18.0454 13.6765V13.71L18.9036 12.8288C19.7767 11.9324 20.2652 10.7258 20.2652 9.46997C20.2652 8.21412 19.7767 7.00758 18.9036 6.11111L18.9037 6.11108L18.8987 6.1061C18.0151 5.22409 16.8222 4.72854 15.5782 4.72854C14.3341 4.72854 13.1413 5.22409 12.2577 6.1061L12.2576 6.10608L12.254 6.10982C12.2082 6.15643 12.1541 6.19313 12.0949 6.21807C12.0357 6.243 11.9724 6.25577 11.9086 6.25577C11.8449 6.25577 11.7816 6.243 11.7224 6.21807C11.6631 6.19313 11.609 6.15643 11.5633 6.10982L11.5633 6.1098L11.5596 6.1061C10.676 5.22409 9.48316 4.72854 8.23912 4.72854C6.99508 4.72854 5.80221 5.22409 4.91861 6.1061L4.91856 6.10604L4.91252 6.11228C4.04606 7.00775 3.5618 8.20952 3.5618 9.45997C3.5618 10.7104 4.04606 11.9122 4.91252 12.8077L4.9125 12.8077L4.91636 12.8116L10.8495 18.8101C10.8497 18.8103 10.8499 18.8106 10.8501 18.8108C10.9882 18.9513 11.1526 19.0632 11.3342 19.1397C11.516 19.2163 11.7113 19.2558 11.9086 19.2558C12.106 19.2558 12.3013 19.2163 12.4831 19.1397C12.6647 19.0632 12.8291 18.9513 12.9672 18.8108C12.9674 18.8106 12.9676 18.8103 12.9678 18.8101L18.0454 13.6765Z" fill="white" stroke="#DCE0EC"/>
</svg>
